<svg
        version="1.0"
        xmlns="http://www.w3.org/2000/svg"
        width="100.000000pt"
        height="100.000000pt"
        viewBox="0 0 1134.000000 1280.000000"
        preserveAspectRatio="xMidYMid meet"
>
    <metadata>
        Created by potrace 1.15, written by Peter Selinger 2001-2017
    </metadata>
    <g
            transform="translate(0.000000,1280.000000) scale(0.100000,-0.100000)"
            fill="#45c7c7"
            stroke="none"
    >
        <path
                d="M4447 12739 c-877 -232 -1713 -675 -2422 -1281 -159 -135 -484 -461
			-620 -622 -820 -962 -1292 -2085 -1385 -3295 -13 -174 -13 -579 0 -752 81
			-1054 472 -2045 1124 -2849 260 -320 613 -651 956 -894 870 -619 2029 -900
			3090 -750 689 97 1318 365 1847 785 151 121 411 373 526 512 557 670 823 1459
			776 2297 -35 627 -248 1178 -631 1628 -78 91 -284 295 -373 367 -403 328 -900
			506 -1410 505 -412 -1 -809 -126 -1133 -357 -258 -185 -419 -373 -580 -678
			-41 -77 -87 -163 -102 -190 -37 -68 -93 -215 -113 -295 -30 -118 -39 -192 -42
			-354 -3 -189 -21 -253 -82 -307 -32 -28 -42 -31 -82 -27 -54 5 -135 44 -204
			96 -118 90 -256 321 -322 537 -118 390 -115 797 10 1209 122 404 352 767 696
			1101 327 317 711 548 1160 698 829 277 1825 205 2673 -192 382 -179 855 -527
			1206 -887 387 -397 644 -787 875 -1329 188 -439 285 -820 347 -1360 19 -170
			16 -732 -5 -925 -57 -504 -116 -786 -257 -1210 -210 -634 -510 -1174 -929
			-1670 -140 -167 -501 -527 -681 -680 -872 -741 -1990 -1224 -3135 -1354 -249
			-29 -422 -38 -700 -38 -372 0 -650 22 -978 78 -82 14 -150 24 -153 22 -6 -7
			276 -64 455 -93 84 -13 255 -37 380 -51 211 -25 245 -26 526 -21 165 4 359 13
			430 21 136 16 171 19 164 12 -5 -4 -252 -32 -377 -42 -144 -12 -84 -13 143 -4
			190 8 286 18 525 56 25 4 43 4 39 1 -3 -4 -74 -18 -159 -32 -84 -13 -155 -27
			-158 -29 -8 -9 212 5 308 19 52 7 129 14 170 14 41 0 112 9 158 19 45 10 82
			15 82 10 0 -4 -10 -8 -22 -9 -22 -1 -22 -1 2 -9 14 -4 42 -8 62 -9 20 -1 40
			-6 44 -12 3 -6 19 -9 35 -7 45 7 25 -8 -51 -38 -39 -15 -69 -29 -67 -30 1 -2
			38 6 81 17 43 11 80 18 82 16 3 -2 -37 -15 -87 -28 -50 -13 -87 -25 -81 -27 5
			-1 74 13 153 33 736 184 1449 532 2104 1025 935 705 1513 1449 1933 2491 221
			547 345 1058 393 1619 16 183 16 754 0 925 -49 537 -148 940 -358 1470 -118
			295 -221 497 -419 817 -205 331 -409 586 -669 836 -610 586 -1300 977 -2065
			1171 -318 80 -609 119 -955 128 -863 22 -1620 -185 -2275 -623 -763 -509
			-1292 -1241 -1495 -2067 -67 -273 -80 -387 -80 -722 0 -332 13 -456 77 -715
			192 -787 690 -1431 1366 -1769 291 -146 568 -217 893 -228 339 -12 632 47 926
			187 256 122 453 274 646 500 50 58 94 104 99 102 5 -1 7 2 4 7 -3 5 20 51 53
			103 140 223 209 447 291 938 22 135 45 257 52 273 15 37 61 74 109 87 34 9 49
			8 97 -10 101 -38 187 -104 246 -188 205 -292 332 -729 312 -1077 -17 -286 -84
			-549 -216 -839 -248 -543 -660 -981 -1200 -1274 -467 -254 -878 -363 -1515
			-402 -186 -11 -412 -2 -614 26 -645 87 -1329 390 -1886 834 -444 354 -799 775
			-1078 1277 -433 781 -638 1761 -562 2700 68 840 333 1611 815 2371 324 511
			841 1059 1350 1433 157 116 418 283 585 376 675 376 1382 615 2135 722 296 42
			489 55 840 54 361 0 557 -13 869 -58 95 -14 175 -24 177 -22 2 2 -49 14 -114
			26 -64 12 -173 33 -242 47 -69 13 -251 37 -405 54 -252 26 -318 30 -660 32
			-319 2 -404 0 -528 -16 -82 -10 -151 -16 -154 -13 -2 3 22 9 54 13 50 7 54 8
			28 14 -27 6 -75 3 -298 -15 -26 -2 -62 -6 -80 -9 -26 -5 -28 -4 -12 4 34 17
			-85 2 -202 -25 -113 -27 -152 -31 -88 -10 70 23 24 16 -125 -19 -172 -41 -359
			-97 -530 -159 -69 -25 -126 -44 -128 -42 -12 11 433 161 636 214 123 32 147
			41 150 58 2 10 15 26 30 35 31 18 70 58 56 57 -5 0 -76 -18 -157 -40z m330
			-85 c-3 -3 -12 -4 -19 -1 -8 3 -5 6 6 6 11 1 17 -2 13 -5z m-40 -10 c-3 -3
			-12 -4 -19 -1 -8 3 -5 6 6 6 11 1 17 -2 13 -5z m-40 -10 c-3 -3 -12 -4 -19 -1
			-8 3 -5 6 6 6 11 1 17 -2 13 -5z m-40 -10 c-3 -3 -12 -4 -19 -1 -8 3 -5 6 6 6
			11 1 17 -2 13 -5z m-52 -14 c-11 -5 -27 -9 -35 -9 -9 0 -8 4 5 9 11 5 27 9 35
			9 9 0 8 -4 -5 -9z m-58 -16 c-3 -3 -12 -4 -19 -1 -8 3 -5 6 6 6 11 1 17 -2 13
			-5z m-52 -14 c-11 -5 -27 -9 -35 -9 -9 0 -8 4 5 9 11 5 27 9 35 9 9 0 8 -4 -5
			-9z m-205 -60 c-8 -5 -19 -10 -25 -10 -5 0 -3 5 5 10 8 5 20 10 25 10 6 0 3
			-5 -5 -10z m-60 -20 c-8 -5 -19 -10 -25 -10 -5 0 -3 5 5 10 8 5 20 10 25 10 6
			0 3 -5 -5 -10z m-60 -20 c-8 -5 -19 -10 -25 -10 -5 0 -3 5 5 10 8 5 20 10 25
			10 6 0 3 -5 -5 -10z m-60 -20 c-8 -5 -19 -10 -25 -10 -5 0 -3 5 5 10 8 5 20
			10 25 10 6 0 3 -5 -5 -10z m-400 -60 c-8 -5 -19 -10 -25 -10 -5 0 -3 5 5 10 8
			5 20 10 25 10 6 0 3 -5 -5 -10z m670 3 c-8 -3 -102 -36 -208 -74 -699 -248
			-1287 -576 -1839 -1027 -57 -46 -103 -81 -103 -78 0 12 263 227 415 337 449
			327 1014 615 1560 795 88 29 167 53 175 53 13 -1 13 -1 0 -6z m-800 -58 c-14
			-8 -29 -14 -35 -14 -5 0 1 6 15 14 14 8 30 14 35 14 6 0 -1 -6 -15 -14z m-251
			-79 c-10 -9 -109 -56 -109 -51 0 6 91 54 104 55 5 0 7 -2 5 -4z m-204 -104
			c-6 -5 -75 -46 -155 -92 -679 -388 -1321 -957 -1799 -1595 -166 -221 -381
			-556 -470 -733 -17 -34 -34 -62 -36 -62 -17 0 175 335 302 528 508 771 1219
			1432 2038 1894 116 65 140 77 120 60z m-215 -167 c0 -2 -10 -9 -22 -15 -22
			-11 -22 -10 -4 4 21 17 26 19 26 11z m-80 -50 c0 -2 -10 -9 -22 -15 -22 -11
			-22 -10 -4 4 21 17 26 19 26 11z m-80 -50 c0 -2 -42 -32 -92 -66 -300 -201
			-602 -454 -937 -783 -240 -237 -401 -415 -501 -556 -229 -321 -496 -793 -660
			-1167 -30 -67 -55 -121 -57 -119 -6 6 117 285 189 430 209 417 459 804 729
			1126 109 131 379 414 387 406 2 -3 59 45 126 106 209 191 404 345 685 541 121
			86 131 92 131 82z m-320 -369 c0 -2 -42 -37 -92 -78 -256 -202 -564 -499 -777
			-746 -63 -72 -116 -132 -119 -132 -3 0 2 8 10 18 8 9 50 60 94 112 217 259
			461 497 737 718 136 109 147 117 147 108z m-250 -349 c0 -2 -17 -19 -37 -38
			l-38 -34 34 38 c33 34 41 42 41 34z m-610 -620 c0 -2 -10 -12 -22 -23 l-23
			-19 19 23 c18 21 26 27 26 19z m-177 -154 c-218 -291 -415 -614 -565 -933 -66
			-138 -188 -423 -208 -483 -6 -21 -14 -36 -16 -34 -13 13 133 362 251 597 115
			232 206 388 351 605 98 148 267 375 279 375 2 0 -39 -57 -92 -127z m57 3 c0
			-2 -8 -10 -17 -17 -16 -13 -17 -12 -4 4 13 16 21 21 21 13z m-40 -51 c-6 -8
			-8 -20 -4 -27 4 -7 4 -10 -1 -6 -4 4 -15 2 -24 -5 -8 -6 -5 3 8 21 12 17 25
			32 28 32 3 0 0 -7 -7 -15z m5557 -31 c-3 -3 -12 -4 -19 -1 -8 3 -5 6 6 6 11 1
			17 -2 13 -5z m193 -44 c222 -59 642 -209 674 -240 5 -5 -47 13 -115 41 -157
			64 -409 148 -564 189 -112 30 -142 40 -119 40 5 0 61 -14 124 -30z m-5790 16
			c0 -2 -8 -10 -17 -17 -16 -13 -17 -12 -4 4 13 16 21 21 21 13z m-36 -75 c-3
			-3 -11 -6 -16 -6 -6 0 -13 -6 -16 -14 -3 -9 0 -11 9 -6 8 5 11 4 6 -1 -5 -5
			-14 -9 -19 -9 -6 0 -13 -6 -16 -14 -3 -9 0 -11 9 -6 8 5 11 4 6 -1 -5 -5 -12
			-9 -15 -9 -4 0 -13 -4 -21 -9 -8 -5 0 11 17 36 17 24 38 45 46 45 9 0 13 -3
			10 -6z m6306 -161 c8 -5 11 -10 5 -10 -5 0 -17 5 -25 10 -8 5 -10 10 -5 10 6
			0 17 -5 25 -10z m50 -20 c8 -5 11 -10 5 -10 -5 0 -17 5 -25 10 -8 5 -10 10 -5
			10 6 0 17 -5 25 -10z m50 -20 c8 -5 11 -10 5 -10 -5 0 -17 5 -25 10 -8 5 -10
			10 -5 10 6 0 17 -5 25 -10z m163 -74 c138 -65 406 -212 442 -242 19 -15 19
			-15 -5 -2 -144 83 -331 184 -445 239 -77 37 -137 68 -133 68 4 1 68 -28 141
			-63z m307 19 c0 -3 -18 4 -40 15 -22 11 -40 23 -40 25 0 3 18 -4 40 -15 22
			-11 40 -23 40 -25z m-7050 -15 c-6 -11 -13 -20 -16 -20 -2 0 0 9 6 20 6 11 13
			20 16 20 2 0 0 -9 -6 -20z m7380 -185 c102 -68 239 -166 304 -219 108 -86 416
			-362 416 -372 0 -12 -20 4 -108 89 -239 227 -539 455 -827 627 -112 67 -133
			86 -40 35 39 -21 153 -93 255 -160z m-1295 155 c13 -6 15 -9 5 -9 -8 0 -22 4
			-30 9 -18 12 -2 12 25 0z m-6115 -20 c-6 -11 -13 -20 -16 -20 -2 0 0 9 6 20 6
			11 13 20 16 20 2 0 0 -9 -6 -20z m6307 -41 c128 -45 412 -164 427 -179 5 -5
			-48 16 -120 47 -71 31 -201 82 -289 114 -88 32 -155 58 -148 59 6 0 65 -19
			130 -41z m-6387 -99 c-11 -22 -23 -40 -25 -40 -3 0 4 18 15 40 11 22 23 40 25
			40 3 0 -4 -18 -15 -40z m-60 -110 c-6 -11 -13 -20 -16 -20 -2 0 0 9 6 20 6 11
			13 20 16 20 2 0 0 -9 -6 -20z m7450 -6 c0 -2 -9 0 -20 6 -11 6 -20 13 -20 16
			0 2 9 0 20 -6 11 -6 20 -13 20 -16z m-7527 -149 c-9 -19 -18 -33 -21 -31 -4 5
			26 66 33 66 3 0 -3 -16 -12 -35z m7669 -102 c53 -40 99 -77 103 -82 3 -5 -50
			32 -118 82 -167 125 -191 143 -132 106 28 -18 94 -66 147 -106z m-4832 113 c0
			-2 -8 -10 -17 -17 -16 -13 -17 -12 -4 4 13 16 21 21 21 13z m-80 -69 c0 -2
			-15 -16 -32 -33 l-33 -29 29 33 c28 30 36 37 36 29z m-90 -91 c0 -2 -8 -10
			-17 -17 -16 -13 -17 -12 -4 4 13 16 21 21 21 13z m5220 -133 c0 -3 -22 14 -50
			37 -27 23 -50 44 -50 47 0 3 23 -14 50 -37 28 -23 50 -44 50 -47z m-5364 -14
			c-37 -39 -103 -116 -148 -172 -86 -109 -120 -147 -73 -82 75 104 267 325 282
			325 3 0 -25 -32 -61 -71z m5909 -119 c10 -11 16 -20 13 -20 -3 0 -13 9 -23 20
			-10 11 -16 20 -13 20 3 0 13 -9 23 -20z m-5635 -83 c0 -2 -10 -12 -22 -23
			l-23 -19 19 23 c18 21 26 27 26 19z m-3279 -262 c-32 -99 -64 -204 -71 -233
			-7 -29 -15 -51 -18 -48 -8 8 73 288 120 414 41 111 25 40 -31 -133z m150 148
			c-12 -20 -14 -14 -5 12 4 9 9 14 11 11 3 -2 0 -13 -6 -23z m2548 -75 c-57 -86
			-94 -135 -74 -98 19 34 126 190 131 190 2 0 -23 -42 -57 -92z m-104 -165 c-34
			-59 -54 -81 -30 -33 22 44 46 80 52 80 3 0 -7 -21 -22 -47z m-97 -178 c-29
			-57 -54 -103 -56 -101 -4 5 96 206 103 206 3 0 -19 -47 -47 -105z m-2591 -47
			c-3 -8 -6 -5 -6 6 -1 11 2 17 5 13 3 -3 4 -12 1 -19z m9442 -150 c213 -341
			402 -744 521 -1113 46 -142 120 -425 119 -453 0 -9 -16 41 -35 112 -140 531
			-325 968 -605 1433 -37 61 -75 124 -84 140 l-17 28 20 -25 c11 -13 48 -68 81
			-122z m-9452 110 c-3 -8 -6 -5 -6 6 -1 11 2 17 5 13 3 -3 4 -12 1 -19z m2519
			-85 c-8 -15 -15 -25 -16 -21 0 12 23 58 27 54 3 -2 -2 -17 -11 -33z m255 -79
			c-38 -91 -86 -234 -121 -364 -16 -58 -29 -98 -29 -89 -1 24 64 255 97 344 43
			113 74 186 79 182 2 -2 -10 -35 -26 -73z m-280 19 c-12 -20 -14 -14 -5 12 4 9
			9 14 11 11 3 -2 0 -13 -6 -23z m3202 20 c-29 -2 -78 -2 -110 0 -32 2 -8 3 52
			3 61 0 87 -1 58 -3z m-228 -13 c-149 -18 -169 -19 -160 -15 20 9 121 23 170
			22 l50 0 -60 -7z m-182 -27 c-7 -2 -19 -2 -25 0 -7 3 -2 5 12 5 14 0 19 -2 13
			-5z m-2812 -30 c-12 -20 -14 -14 -5 12 4 9 9 14 11 11 3 -2 0 -13 -6 -23z
			m-40 -110 c-12 -20 -14 -14 -5 12 4 9 9 14 11 11 3 -2 0 -13 -6 -23z m24 -224
			c-14 -57 -34 -155 -45 -217 -18 -104 -25 -160 -50 -437 -8 -93 -8 -90 -4 45 6
			152 25 324 50 450 20 97 66 271 71 267 2 -2 -8 -51 -22 -108z m7359 -25 c3 -8
			2 -12 -4 -9 -6 3 -10 10 -10 16 0 14 7 11 14 -7z m-9907 -26 c-3 -8 -6 -5 -6
			6 -1 11 2 17 5 13 3 -3 4 -12 1 -19z m9933 -33 c0 -5 -5 -3 -10 5 -5 8 -10 20
			-10 25 0 6 5 3 10 -5 5 -8 10 -19 10 -25z m-7226 -84 c-4 -23 -9 -40 -11 -37
			-3 3 -2 23 2 46 4 23 9 39 11 37 3 -2 2 -23 -2 -46z m7285 -46 c0 -5 -8 6 -19
			25 -11 19 -19 40 -19 45 0 6 8 -6 19 -25 11 -19 19 -39 19 -45z m-10102 -32
			c-3 -10 -5 -4 -5 12 0 17 2 24 5 18 2 -7 2 -21 0 -30z m2800 -15 c-3 -7 -5 -2
			-5 12 0 14 2 19 5 13 2 -7 2 -19 0 -25z m7332 -23 c0 -5 -6 1 -14 15 -8 14
			-14 30 -14 35 0 6 6 -1 14 -15 8 -14 14 -29 14 -35z m-10143 -202 c-7 -211 4
			-505 29 -738 13 -120 24 -196 60 -425 5 -35 5 -35 -5 -5 -32 97 -84 541 -96
			818 -6 155 3 547 14 547 2 0 2 -89 -2 -197z m2801 160 c-3 -10 -5 -4 -5 12 0
			17 2 24 5 18 2 -7 2 -21 0 -30z m7379 -60 c-4 -4 -36 73 -35 85 0 4 9 -13 20
			-37 11 -24 18 -46 15 -48z m-10241 -285 c0 -199 -3 -299 -6 -238 -9 148 -10
			380 -3 488 4 51 7 92 8 92 1 0 1 -154 1 -342z m10284 186 c18 -48 30 -88 28
			-91 -2 -2 -16 31 -31 72 -15 42 -30 83 -33 91 -3 7 -3 14 0 14 3 0 19 -39 36
			-86z m-10022 -41 c-2 -21 -4 -6 -4 32 0 39 2 55 4 38 2 -18 2 -50 0 -70z m23
			-585 c6 -66 9 -123 6 -126 -3 -3 -6 1 -6 9 0 8 -7 86 -15 174 -8 88 -14 234
			-13 325 l1 165 8 -213 c4 -117 12 -267 19 -334z m10049 477 c0 -5 -4 -3 -9 5
			-5 8 -9 22 -9 30 0 16 17 -16 18 -35z m20 -60 c0 -5 -4 -3 -9 5 -5 8 -9 22 -9
			30 0 16 17 -16 18 -35z m40 -135 c0 -9 -4 -8 -9 5 -5 11 -9 27 -9 35 0 9 4 8
			9 -5 5 -11 9 -27 9 -35z m-7752 -27 c-3 -10 -5 -4 -5 12 0 17 2 24 5 18 2 -7
			2 -21 0 -30z m-2630 -230 c-2 -16 -4 -5 -4 22 0 28 2 40 4 28 2 -13 2 -35 0
			-50z m10190 -95 c-3 -8 -6 -5 -6 6 -1 11 2 17 5 13 3 -3 4 -12 1 -19z m170
			-10 c-3 -8 -6 -5 -6 6 -1 11 2 17 5 13 3 -3 4 -12 1 -19z m-10350 -20 c-3 -8
			-6 -5 -6 6 -1 11 2 17 5 13 3 -3 4 -12 1 -19z m10190 -20 c-3 -8 -6 -5 -6 6
			-1 11 2 17 5 13 3 -3 4 -12 1 -19z m37 -168 c55 -316 77 -571 74 -872 l-1
			-193 -8 225 c-11 328 -42 657 -84 890 -16 90 -18 106 -11 99 3 -2 16 -69 30
			-149z m-2155 60 c0 -10 -3 -8 -9 5 -12 27 -12 43 0 25 5 -8 9 -22 9 -30z m72
			-284 c17 -81 29 -158 27 -170 -2 -11 -11 29 -21 89 -10 61 -32 161 -48 223
			-16 62 -29 116 -28 120 3 20 44 -132 70 -262z m2376 212 c-3 -7 -5 -2 -5 12 0
			14 2 19 5 13 2 -7 2 -19 0 -25z m38 -250 c9 -79 17 -235 19 -348 2 -113 2
			-171 0 -130 -6 139 -25 404 -40 544 -8 76 -14 143 -13 150 2 24 18 -79 34
			-216z m-10418 -60 c-3 -8 -6 -5 -6 6 -1 11 2 17 5 13 3 -3 4 -12 1 -19z m10
			-40 c-3 -8 -6 -5 -6 6 -1 11 2 17 5 13 3 -3 4 -12 1 -19z m10 -60 c-3 -8 -6
			-5 -6 6 -1 11 2 17 5 13 3 -3 4 -12 1 -19z m8020 -75 c-3 -10 -5 -4 -5 12 0
			17 2 24 5 18 2 -7 2 -21 0 -30z m-170 -425 c-1 -46 -3 -9 -3 82 0 91 2 128 3
			83 2 -46 2 -120 0 -165z m-10 -175 c-2 -16 -4 -3 -4 27 0 30 2 43 4 28 2 -16
			2 -40 0 -55z m2290 -80 c-2 -21 -4 -4 -4 37 0 41 2 58 4 38 2 -21 2 -55 0 -75z
			m-2300 -5 c-2 -13 -4 -5 -4 17 -1 22 1 32 4 23 2 -10 2 -28 0 -40z m-10 -75
			c-3 -10 -5 -2 -5 17 0 19 2 27 5 18 2 -10 2 -26 0 -35z m-10 -60 c-3 -10 -5
			-4 -5 12 0 17 2 24 5 18 2 -7 2 -21 0 -30z m-10 -55 c-3 -7 -5 -2 -5 12 0 14
			2 19 5 13 2 -7 2 -19 0 -25z m-10 -50 c-3 -7 -5 -2 -5 12 0 14 2 19 5 13 2 -7
			2 -19 0 -25z m-10 -40 c-3 -8 -6 -5 -6 6 -1 11 2 17 5 13 3 -3 4 -12 1 -19z
			m-7072 -48 c14 -27 23 -50 20 -50 -2 0 -16 23 -30 50 -14 28 -23 50 -20 50 2
			0 16 -22 30 -50z m7062 8 c-3 -8 -6 -5 -6 6 -1 11 2 17 5 13 3 -3 4 -12 1 -19z
			m-10 -40 c-3 -8 -6 -5 -6 6 -1 11 2 17 5 13 3 -3 4 -12 1 -19z m-6991 -75 c15
			-27 34 -59 42 -73 l14 -25 -18 22 c-22 27 -77 123 -71 123 3 0 18 -21 33 -47z
			m6951 -65 c-3 -8 -6 -5 -6 6 -1 11 2 17 5 13 3 -3 4 -12 1 -19z m2270 -50 c-3
			-8 -6 -5 -6 6 -1 11 2 17 5 13 3 -3 4 -12 1 -19z m-9126 -43 l10 -20 -16 20
			c-9 11 -21 29 -26 40 l-10 20 16 -20 c9 -11 21 -29 26 -40z m9116 -17 c-3 -7
			-5 -2 -5 12 0 14 2 19 5 13 2 -7 2 -19 0 -25z m-42 -207 c-55 -249 -181 -666
			-216 -721 -12 -17 -15 -28 42 145 60 181 135 450 172 616 17 82 33 142 35 135
			2 -8 -13 -86 -33 -175z m362 107 c-3 -7 -5 -2 -5 12 0 14 2 19 5 13 2 -7 2
			-19 0 -25z m-10 -50 c-3 -7 -5 -2 -5 12 0 14 2 19 5 13 2 -7 2 -19 0 -25z
			m-13 -62 c-3 -21 -8 -35 -11 -32 -2 2 -1 20 3 40 3 21 8 35 11 32 2 -2 1 -20
			-3 -40z m-48 -198 c-19 -73 -56 -198 -81 -278 -49 -152 -164 -454 -171 -448
			-2 2 17 56 42 119 64 163 155 440 200 611 22 81 40 143 42 138 2 -5 -12 -69
			-32 -142z m-2741 -18 c-9 -16 -18 -30 -21 -30 -2 0 2 14 11 30 9 17 18 30 21
			30 2 0 -2 -13 -11 -30z m2512 -32 c-3 -8 -6 -5 -6 6 -1 11 2 17 5 13 3 -3 4
			-12 1 -19z m-52 -184 c-217 -698 -558 -1323 -1013 -1856 -125 -147 -342 -378
			-355 -378 -5 0 44 55 109 123 551 570 980 1296 1241 2099 32 98 59 174 61 169
			1 -4 -18 -75 -43 -157z m-8914 39 c13 -16 12 -17 -3 -4 -10 7 -18 15 -18 17 0
			8 8 3 21 -13z m198 -222 c195 -210 454 -436 697 -608 60 -43 121 -86 135 -96
			24 -18 24 -18 -6 -1 -63 36 -250 171 -377 272 -136 109 -492 455 -587 572 -56
			68 -48 60 138 -139z m8470 -160 c-6 -18 -13 -30 -15 -28 -2 2 1 18 7 36 6 18
			13 30 15 28 2 -2 -1 -18 -7 -36z m-28 -68 c-12 -20 -14 -14 -5 12 4 9 9 14 11
			11 3 -2 0 -13 -6 -23z m-50 -120 c-12 -20 -14 -14 -5 12 4 9 9 14 11 11 3 -2
			0 -13 -6 -23z m335 -10 c-8 -15 -15 -25 -16 -21 0 12 23 58 27 54 3 -2 -2 -17
			-11 -33z m-356 -41 c0 -5 -7 -17 -15 -28 -14 -18 -14 -17 -4 9 12 27 19 34 19
			19z m316 -49 c-8 -15 -15 -25 -16 -21 0 12 23 58 27 54 3 -2 -2 -17 -11 -33z
			m-7106 -503 c8 -5 11 -10 5 -10 -5 0 -17 5 -25 10 -8 5 -10 10 -5 10 6 0 17
			-5 25 -10z m80 -32 c10 -6 7 -7 -10 -2 -14 3 -32 11 -40 16 -10 6 -7 7 10 2
			14 -3 32 -11 40 -16z m80 -28 c8 -5 11 -10 5 -10 -5 0 -17 5 -25 10 -8 5 -10
			10 -5 10 6 0 17 -5 25 -10z m-255 -100 c3 -6 -1 -7 -9 -4 -18 7 -21 14 -7 14
			6 0 13 -4 16 -10z m105 -40 c8 -5 11 -10 5 -10 -5 0 -17 5 -25 10 -8 5 -10 10
			-5 10 6 0 17 -5 25 -10z m50 -20 c8 -5 11 -10 5 -10 -5 0 -17 5 -25 10 -8 5
			-10 10 -5 10 6 0 17 -5 25 -10z m5910 -633 c0 -2 -15 -16 -32 -33 l-33 -29 29
			33 c28 30 36 37 36 29z m-204 -109 c-272 -294 -704 -647 -1071 -875 -134 -83
			-155 -95 -155 -90 0 3 28 22 63 43 364 220 722 500 1057 831 96 95 177 173
			178 173 2 0 -31 -37 -72 -82z m14 -94 c-102 -102 -340 -322 -396 -363 -31 -25
			31 34 162 151 65 59 168 157 229 217 60 61 112 111 115 111 2 0 -47 -52 -110
			-116z m-30 -108 c0 -2 -8 -10 -17 -17 -16 -13 -17 -12 -4 4 13 16 21 21 21 13z
			m-150 -148 c-41 -38 -115 -104 -165 -145 -49 -41 -63 -51 -31 -21 33 29 105
			94 160 145 56 51 103 92 106 92 3 0 -29 -32 -70 -71z m-260 -141 c0 -2 -10
			-12 -22 -23 l-23 -19 19 23 c18 21 26 27 26 19z m0 -80 c0 -2 -12 -14 -27 -28
			l-28 -24 24 28 c23 25 31 32 31 24z m-60 -51 c0 -2 -8 -10 -17 -17 -16 -13
			-17 -12 -4 4 13 16 21 21 21 13z m-40 -30 c0 -2 -8 -10 -17 -17 -16 -13 -17
			-12 -4 4 13 16 21 21 21 13z m-229 -285 c-31 -24 -263 -171 -326 -206 -89 -50
			-33 -10 95 68 69 42 152 94 185 117 62 41 88 54 46 21z m-481 -36 c0 -2 -13
			-11 -30 -20 -38 -19 -40 -11 -2 9 31 17 32 18 32 11z m-70 -40 c0 -2 -18 -14
			-40 -25 -22 -11 -40 -18 -40 -15 0 2 17 13 38 24 42 23 42 23 42 16z m-115
			-65 c-3 -5 -12 -10 -18 -10 -7 0 -6 4 3 10 19 12 23 12 15 0z m265 -105 c0 -2
			-13 -11 -30 -20 -38 -19 -40 -11 -2 9 31 17 32 18 32 11z m-90 -50 c0 -2 -13
			-11 -30 -20 -38 -19 -40 -11 -2 9 31 17 32 18 32 11z m-1440 -515 c-8 -5 -22
			-9 -30 -9 -10 0 -8 3 5 9 27 12 43 12 25 0z m-413 -6 c-3 -3 -12 -4 -19 -1 -8
			3 -5 6 6 6 11 1 17 -2 13 -5z m-304 -11 c-7 -2 -19 -2 -25 0 -7 3 -2 5 12 5
			14 0 19 -2 13 -5z"
        />
        <path d="M1715 11068 l-90 -93 93 90 c50 49 92 91 92 92 0 8 -12 -4 -95 -89z" />
        <path d="M7238 12523 c6 -2 18 -2 25 0 6 3 1 5 -13 5 -14 0 -19 -2 -12 -5z" />
        <path d="M6383 12333 c20 -2 54 -2 75 0 20 2 3 4 -38 4 -41 0 -58 -2 -37 -4z" />
        <path d="M6098 12323 c6 -2 18 -2 25 0 6 3 1 5 -13 5 -14 0 -19 -2 -12 -5z" />
        <path d="M6798 12323 c12 -2 30 -2 40 0 9 3 -1 5 -23 4 -22 0 -30 -2 -17 -4z" />
        <path d="M6913 12313 c9 -2 23 -2 30 0 6 3 -1 5 -18 5 -16 0 -22 -2 -12 -5z" />
        <path d="M7053 12303 c9 -2 23 -2 30 0 6 3 -1 5 -18 5 -16 0 -22 -2 -12 -5z" />
        <path d="M7128 12293 c6 -2 18 -2 25 0 6 3 1 5 -13 5 -14 0 -19 -2 -12 -5z" />
        <path d="M6177 12283 c18 -2 50 -2 70 0 21 2 7 4 -32 4 -38 0 -55 -2 -38 -4z" />
        <path d="M6653 12283 c9 -2 25 -2 35 0 9 3 1 5 -18 5 -19 0 -27 -2 -17 -5z" />
        <path d="M7228 12283 c6 -2 18 -2 25 0 6 3 1 5 -13 5 -14 0 -19 -2 -12 -5z" />
        <path d="M5998 12273 c12 -2 32 -2 45 0 12 2 2 4 -23 4 -25 0 -35 -2 -22 -4z" />
        <path d="M5893 12263 c9 -2 25 -2 35 0 9 3 1 5 -18 5 -19 0 -27 -2 -17 -5z" />
        <path d="M6988 12263 c7 -3 16 -2 19 1 4 3 -2 6 -13 5 -11 0 -14 -3 -6 -6z" />
        <path d="M7368 12263 c7 -3 16 -2 19 1 4 3 -2 6 -13 5 -11 0 -14 -3 -6 -6z" />
        <path d="M5788 12253 c12 -2 30 -2 40 0 9 3 -1 5 -23 4 -22 0 -30 -2 -17 -4z" />
        <path d="M5713 12243 c9 -2 23 -2 30 0 6 3 -1 5 -18 5 -16 0 -22 -2 -12 -5z" />
        <path d="M6343 12243 c26 -2 67 -2 90 0 23 2 2 3 -48 3 -49 0 -68 -1 -42 -3z" />
        <path d="M5633 12233 c9 -2 25 -2 35 0 9 3 1 5 -18 5 -19 0 -27 -2 -17 -5z" />
        <path d="M5568 12223 c6 -2 18 -2 25 0 6 3 1 5 -13 5 -14 0 -19 -2 -12 -5z" />
        <path d="M6918 12223 c6 -2 18 -2 25 0 6 3 1 5 -13 5 -14 0 -19 -2 -12 -5z" />
        <path d="M5508 12213 c6 -2 18 -2 25 0 6 3 1 5 -13 5 -14 0 -19 -2 -12 -5z" />
        <path d="M5448 12203 c6 -2 18 -2 25 0 6 3 1 5 -13 5 -14 0 -19 -2 -12 -5z" />
        <path d="M7138 12203 c7 -3 16 -2 19 1 4 3 -2 6 -13 5 -11 0 -14 -3 -6 -6z" />
        <path d="M5398 12193 c6 -2 18 -2 25 0 6 3 1 5 -13 5 -14 0 -19 -2 -12 -5z" />
        <path d="M5310 12180 c-20 -6 -21 -8 -5 -8 11 0 29 3 40 8 25 11 -1 11 -35 0z" />
        <path d="M5238 12163 c7 -3 16 -2 19 1 4 3 -2 6 -13 5 -11 0 -14 -3 -6 -6z" />
        <path d="M6208 12153 c12 -2 30 -2 40 0 9 3 -1 5 -23 4 -22 0 -30 -2 -17 -4z" />
        <path d="M6673 12153 c9 -2 25 -2 35 0 9 3 1 5 -18 5 -19 0 -27 -2 -17 -5z" />
        <path d="M5938 12133 c7 -3 16 -2 19 1 4 3 -2 6 -13 5 -11 0 -14 -3 -6 -6z" />
        <path d="M6238 12123 c18 -2 45 -2 60 0 15 2 0 4 -33 4 -33 0 -45 -2 -27 -4z" />
        <path d="M6638 12123 c18 -2 45 -2 60 0 15 2 0 4 -33 4 -33 0 -45 -2 -27 -4z" />
        <path d="M5918 12103 c7 -3 16 -2 19 1 4 3 -2 6 -13 5 -11 0 -14 -3 -6 -6z" />
        <path d="M6998 12103 c7 -3 16 -2 19 1 4 3 -2 6 -13 5 -11 0 -14 -3 -6 -6z" />
        <path d="M6138 11973 c6 -2 18 -2 25 0 6 3 1 5 -13 5 -14 0 -19 -2 -12 -5z" />
        <path d="M6878 11973 c7 -3 16 -2 19 1 4 3 -2 6 -13 5 -11 0 -14 -3 -6 -6z" />
        <path
                d="M9490 11376 c0 -3 9 -10 20 -16 11 -6 20 -8 20 -6 0 3 -9 10 -20 16
			-11 6 -20 8 -20 6z"
        />
        <path
                d="M3139 11303 c-13 -16 -12 -17 4 -4 16 13 21 21 13 21 -2 0 -10 -8
			-17 -17z"
        />
        <path
                d="M3069 11253 c-13 -16 -12 -17 4 -4 16 13 21 21 13 21 -2 0 -10 -8
			-17 -17z"
        />
        <path d="M3029 11223 c-13 -16 -12 -17 4 -4 9 7 17 15 17 17 0 8 -8 3 -21 -13z" />
        <path
                d="M2949 11163 c-13 -16 -12 -17 4 -4 16 13 21 21 13 21 -2 0 -10 -8
			-17 -17z"
        />
        <path d="M2594 10728 l-19 -23 23 19 c21 18 27 26 19 26 -2 0 -12 -10 -23 -22z" />
        <path d="M2469 10603 l-24 -28 28 24 c25 23 32 31 24 31 -2 0 -14 -12 -28 -27z" />
        <path d="M2349 10513 l-24 -28 28 24 c25 23 32 31 24 31 -2 0 -14 -12 -28 -27z" />
        <path d="M2334 10458 l-19 -23 23 19 c12 11 22 21 22 23 0 8 -8 2 -26 -19z" />
        <path
                d="M2249 10453 c-13 -16 -12 -17 4 -4 16 13 21 21 13 21 -2 0 -10 -8
			-17 -17z"
        />
        <path d="M6548 9953 c7 -3 16 -2 19 1 4 3 -2 6 -13 5 -11 0 -14 -3 -6 -6z" />
        <path
                d="M11070 9784 c0 -5 13 -23 28 -39 30 -34 27 -25 -6 19 -12 16 -22 25
			-22 20z"
        />
        <path d="M6448 9313 c6 -2 18 -2 25 0 6 3 1 5 -13 5 -14 0 -19 -2 -12 -5z" />
        <path d="M6688 9313 c7 -3 16 -2 19 1 4 3 -2 6 -13 5 -11 0 -14 -3 -6 -6z" />
        <path d="M4299 8783 c-13 -16 -12 -17 4 -4 9 7 17 15 17 17 0 8 -8 3 -21 -13z" />
        <path d="M931 7444 c0 -11 3 -14 6 -6 3 7 2 16 -1 19 -3 4 -6 -2 -5 -13z" />
        <path d="M1382 7390 c0 -19 2 -27 5 -17 2 9 2 25 0 35 -3 9 -5 1 -5 -18z" />
        <path d="M1382 7110 c0 -19 2 -27 5 -17 2 9 2 25 0 35 -3 9 -5 1 -5 -18z" />
        <path d="M1081 6784 c0 -11 3 -14 6 -6 3 7 2 16 -1 19 -3 4 -6 -2 -5 -13z" />
        <path d="M1112 6770 c0 -14 2 -19 5 -12 2 6 2 18 0 25 -3 6 -5 1 -5 -13z" />
        <path d="M1101 6594 c0 -11 3 -14 6 -6 3 7 2 16 -1 19 -3 4 -6 -2 -5 -13z" />
        <path d="M1131 6574 c0 -11 3 -14 6 -6 3 7 2 16 -1 19 -3 4 -6 -2 -5 -13z" />
        <path d="M9952 5730 c0 -14 2 -19 5 -12 2 6 2 18 0 25 -3 6 -5 1 -5 -13z" />
        <path d="M9951 5254 c0 -11 3 -14 6 -6 3 7 2 16 -1 19 -3 4 -6 -2 -5 -13z" />
        <path d="M4628 3443 c7 -3 16 -2 19 1 4 3 -2 6 -13 5 -11 0 -14 -3 -6 -6z" />
        <path d="M4898 3443 c6 -2 18 -2 25 0 6 3 1 5 -13 5 -14 0 -19 -2 -12 -5z" />
        <path
                d="M160 3106 c0 -2 8 -10 18 -17 15 -13 16 -12 3 4 -13 16 -21 21 -21
			13z"
        />
        <path
                d="M190 3066 c0 -2 8 -10 18 -17 15 -13 16 -12 3 4 -13 16 -21 21 -21
			13z"
        />
        <path d="M240 3003 c13 -18 25 -33 27 -33 8 0 -17 38 -33 51 -11 9 -9 2 6 -18z" />
        <path d="M4428 2833 c7 -3 16 -2 19 1 4 3 -2 6 -13 5 -11 0 -14 -3 -6 -6z" />
        <path
                d="M1120 2016 c0 -2 8 -10 18 -17 15 -13 16 -12 3 4 -13 16 -21 21 -21
			13z"
        />
        <path
                d="M1174 1972 c8 -13 66 -56 66 -49 0 3 -17 17 -37 33 -20 15 -33 23
			-29 16z"
        />
        <path d="M1437 1719 c12 -12 24 -21 27 -18 2 2 -8 13 -22 23 l-27 19 22 -24z" />
        <path
                d="M1900 1336 c0 -2 8 -10 18 -17 15 -13 16 -12 3 4 -13 16 -21 21 -21
			13z"
        />
        <path d="M1907 1219 c7 -7 15 -10 18 -7 3 3 -2 9 -12 12 -14 6 -15 5 -6 -5z" />
        <path d="M5428 803 c7 -3 16 -2 19 1 4 3 -2 6 -13 5 -11 0 -14 -3 -6 -6z" />
        <path d="M4108 793 c7 -3 16 -2 19 1 4 3 -2 6 -13 5 -11 0 -14 -3 -6 -6z" />
        <path d="M4578 783 c7 -3 16 -2 19 1 4 3 -2 6 -13 5 -11 0 -14 -3 -6 -6z" />
        <path d="M5148 783 c7 -3 16 -2 19 1 4 3 -2 6 -13 5 -11 0 -14 -3 -6 -6z" />
        <path d="M4288 773 c7 -3 16 -2 19 1 4 3 -2 6 -13 5 -11 0 -14 -3 -6 -6z" />
        <path d="M4563 753 c9 -2 23 -2 30 0 6 3 -1 5 -18 5 -16 0 -22 -2 -12 -5z" />
        <path d="M4308 743 c7 -3 16 -2 19 1 4 3 -2 6 -13 5 -11 0 -14 -3 -6 -6z" />
        <path d="M4628 723 c12 -2 30 -2 40 0 9 3 -1 5 -23 4 -22 0 -30 -2 -17 -4z" />
        <path d="M4998 723 c7 -3 16 -2 19 1 4 3 -2 6 -13 5 -11 0 -14 -3 -6 -6z" />
        <path d="M5658 703 c7 -3 16 -2 19 1 4 3 -2 6 -13 5 -11 0 -14 -3 -6 -6z" />
        <path d="M5498 683 c6 -2 18 -2 25 0 6 3 1 5 -13 5 -14 0 -19 -2 -12 -5z" />
        <path d="M5408 673 c6 -2 18 -2 25 0 6 3 1 5 -13 5 -14 0 -19 -2 -12 -5z" />
        <path d="M5288 663 c12 -2 30 -2 40 0 9 3 -1 5 -23 4 -22 0 -30 -2 -17 -4z" />
        <path d="M5133 653 c15 -2 37 -2 50 0 12 2 0 4 -28 4 -27 0 -38 -2 -22 -4z" />
        <path d="M5488 653 c6 -2 18 -2 25 0 6 3 1 5 -13 5 -14 0 -19 -2 -12 -5z" />
        <path d="M5268 633 c12 -2 30 -2 40 0 9 3 -1 5 -23 4 -22 0 -30 -2 -17 -4z" />
        <path d="M5068 623 c12 -2 30 -2 40 0 9 3 -1 5 -23 4 -22 0 -30 -2 -17 -4z" />
        <path d="M4548 433 c7 -3 16 -2 19 1 4 3 -2 6 -13 5 -11 0 -14 -3 -6 -6z" />
        <path d="M5358 433 c7 -3 16 -2 19 1 4 3 -2 6 -13 5 -11 0 -14 -3 -6 -6z" />
    </g>
</svg>
